<?xml version="1.0" encoding="UTF-8" standalone="no"?>
<svg width="500px" height="500px" viewBox="0 0 500 500" version="1.1" xmlns="http://www.w3.org/2000/svg" xmlns:xlink="http://www.w3.org/1999/xlink">
        <g id="Group" fill="#9B9B9B" xlink:href="logo">
            <g id="electrode-logo" transform="translate(262.251390, 0.000000)">
                <path d="M33.2404322,19.5564755 C32.9118482,19.5564755 32.6008577,19.3838482 32.4295801,19.0938965 L29.979948,14.9658314 L27.9215118,18.8225513 C27.7326407,19.177109 27.3393749,19.3719607 26.9419694,19.3109727 C26.5455988,19.2474003 26.233056,18.9403926 26.1621646,18.5470713 L24.3433102,8.42667026 L22.4426978,14.3988491 C22.3169562,14.7916536 21.9557726,15.0557629 21.5438784,15.0557629 L16.7682858,15.0557629 C16.2487609,15.0557629 15.8275525,14.6355655 15.8275525,14.1140658 C15.8275525,13.5946335 16.2487609,13.1734025 16.7682858,13.1734025 L20.8541108,13.1734025 L23.7001136,4.23193174 C23.8315471,3.82103757 24.2284351,3.54504073 24.6584403,3.57966954 C25.0910327,3.60757934 25.4475592,3.92595772 25.5231077,4.35132363 L27.5365252,15.5416001 L29.1038966,12.6059033 C29.2632727,12.3045809 29.5737458,12.1164482 29.9142312,12.107145 C30.2598912,12.0978417 30.5713991,12.2766711 30.7473338,12.5686902 L32.8606202,16.126672 L36.4916022,0.747342412 C36.5950932,0.314740622 36.9924987,0.00980029179 37.4302656,0.0237551887 C37.8747595,0.0330584529 38.2519843,0.351436831 38.3337422,0.788690252 L40.6860928,13.2080313 L48.1255439,13.5300276 C48.6435165,13.5517352 49.0466139,13.9915729 49.0238459,14.5110051 C49.0026302,15.0304373 48.5571015,15.4330619 48.0432686,15.412388 L39.8576473,15.0557629 C39.4224676,15.0361227 39.054557,14.718778 38.9743515,14.2908278 L37.3086637,5.4920072 L34.1583974,18.8297871 C34.0699126,19.2034682 33.7630618,19.4877346 33.3827323,19.5451048 C33.3356439,19.5518238 33.2870031,19.5564755 33.2404322,19.5564755" id="Fill-1"></path>
                <path d="M32.528466,69.9614062 C21.8554383,69.9614062 13.2030725,61.3186738 13.2030725,50.6581665 C13.2030725,39.9940414 21.8554383,31.3523426 32.528466,31.3523426 C43.2025286,31.3523426 51.8543767,39.9940414 51.8543767,50.6581665 C51.8543767,61.3186738 43.2025286,69.9614062 32.528466,69.9614062 M56.2082437,40.4793617 L55.4527592,40.4090704 L55.1226232,39.7278647 C53.7689606,36.9508403 51.9128494,34.4549812 49.6070695,32.3059272 L48.8169159,31.5694187 L56.2542972,18.9609114 L56.8809353,18.8616765 C58.7825824,18.560871 60.1636698,16.9472715 60.1636698,15.0245969 C60.1636698,12.8791607 58.4151894,11.1342818 56.2682687,11.1342818 C54.1197951,11.1342818 52.3707971,12.8791607 52.3707971,15.0245969 C52.3707971,15.6742748 52.5281035,16.2919082 52.8334017,16.8640589 L53.2013122,17.547332 L45.8596603,29.3779831 L44.7367828,28.7469117 C41.0302524,26.6717669 36.8176509,25.5626111 32.5538213,25.5409034 L32.5263962,25.5409034 L32.505698,25.5409034 C28.2392812,25.5626111 24.028232,26.6717669 20.3211841,28.7469117 L19.1983066,29.3779831 L11.7366049,17.3581656 L12.0532874,16.6945328 C12.3073578,16.1637299 12.4346518,15.6008824 12.4346518,15.0245969 C12.4346518,12.8791607 10.6887585,11.1342818 8.54080257,11.1342818 C6.3918118,11.1342818 4.64333121,12.8791607 4.64333121,15.0245969 C4.64333121,17.0247987 6.14136355,18.6890493 8.13046073,18.8952717 L8.80625703,18.965563 L16.2389812,31.5694187 L15.4514147,32.3048935 C13.1420128,34.4570486 11.2884889,36.9508403 9.93637883,39.7278647 L9.60572506,40.4090704 L8.85075818,40.4793617 C3.8179904,40.9419407 0.0250449396,45.1004998 0.0250449396,50.1526891 C0.0250449396,54.9443871 3.60686875,59.0745196 8.35607116,59.7577927 L9.10689842,59.8652971 L9.40236521,60.5645925 C13.3443378,69.8414974 22.4106676,75.8679456 32.505698,75.9191133 L32.528466,75.9191133 L32.5538213,75.9191133 C42.6452296,75.8679456 51.7125941,69.8414974 55.6550844,60.5645925 L55.9521036,59.8652971 L56.700861,59.7577927 C61.4505808,59.0745196 65.0313697,54.9443871 65.0313697,50.1526891 C65.0313697,45.1004998 61.2394591,40.9419407 56.2082437,40.4793617" id="Fill-4"></path>
                <path d="M42.6121641,46.2485226 C42.6121641,47.784078 41.3656151,49.0307155 39.8241162,49.0307155 C38.2852048,49.0307155 37.036586,47.784078 37.036586,46.2485226 C37.036586,44.7077986 38.2852048,43.4621949 39.8241162,43.4621949 C41.3656151,43.4621949 42.6121641,44.7077986 42.6121641,46.2485226" id="Fill-7"></path>
                <path d="M28.0203975,46.2485226 C28.0203975,47.784078 26.7733309,49.0307155 25.2307973,49.0307155 C23.6944734,49.0307155 22.4448193,47.784078 22.4448193,46.2485226 C22.4448193,44.7077986 23.6944734,43.4621949 25.2307973,43.4621949 C26.7733309,43.4621949 28.0203975,44.7077986 28.0203975,46.2485226" id="Fill-9"></path>
            </g>
            <path d="M344.258649,48.6675263 L344.258649,48.8530748 C344.258649,60.2015069 352.174159,67.4565024 361.206336,67.4565024 C370.146407,67.4565024 378.620768,59.9218921 378.620768,48.8530748 L378.620768,48.6675263 C378.620768,37.5987092 370.146407,30.1576483 361.206336,30.1576483 C351.894216,30.1576483 344.258649,37.0410302 344.258649,48.6675263 L344.258649,48.6675263 L344.258649,48.6675263 Z M381.97336,73.3154915 C379.924755,73.3154915 378.340825,71.7349703 378.340825,69.6882518 L378.340825,63.1775174 C374.4299,68.9445079 368.749796,73.874204 359.902867,73.874204 C348.355858,73.874204 336.901991,64.7590724 336.901991,48.9466245 C336.901991,33.0416602 348.355858,23.7404633 359.902867,23.7404633 C368.842938,23.7404633 374.616701,28.5766102 378.340825,33.9714698 L378.340825,8.11356354 C378.340825,6.06736224 379.830578,4.48632417 381.880218,4.48632417 C383.928822,4.48632417 385.511717,6.06736224 385.511717,8.11356354 L385.511717,69.6882518" id="Fill-24"></path>
            <path d="M38.2734588,46.1560066 C37.528841,37.4130056 32.5007303,29.7858794 22.9086662,29.7858794 C14.5269294,29.7858794 8.19534948,36.7617771 7.26341294,46.1560066 L38.2734588,46.1560066 L38.2734588,46.1560066 Z M24.0263691,73.9670814 C10.8028055,73.9670814 -0.000103491009,63.8285909 -0.000103491009,48.9464691 L-0.000103491009,48.7604038 C-0.000103491009,34.901641 9.77824445,23.7403081 23.0944325,23.7403081 C37.3425572,23.7403081 45.4443508,35.3668043 45.4443508,48.1091753 C45.4443508,50.0628607 43.8619732,51.4578335 42.0917595,51.4578335 L7.26341294,51.4578335 C8.2884914,61.8754222 15.6451497,67.735445 24.2121354,67.735445 C30.1721826,67.735445 34.5493349,65.4101458 38.0876924,62.1545201 C38.6465438,61.6893569 39.2985372,61.3172263 40.1362969,61.3172263 C41.9059932,61.3172263 43.3031218,62.7121991 43.3031218,64.3862698 C43.3031218,65.2240805 42.9295193,66.0608574 42.1849014,66.7115691 C37.6214654,71.0835865 32.2207871,73.9670814 24.0263691,73.9670814 L24.0263691,73.9670814 L24.0263691,73.9670814 Z" id="Fill-11"></path>
            <path d="M117.893335,46.1560068 C117.148717,37.4130057 112.119571,29.7858795 102.528542,29.7858795 C94.1468055,29.7858795 87.8152258,36.7617772 86.883289,46.1560068 L117.893335,46.1560068 L117.893335,46.1560068 Z M103.646245,73.9670819 C90.4226817,73.9670819 79.6208077,63.8285911 79.6208077,48.946469 L79.6208077,48.7604039 C79.6208077,34.9016412 89.3981204,23.7403083 102.714309,23.7403083 C116.962433,23.7403083 125.063709,35.3668044 125.063709,48.1091754 C125.063709,50.0628611 123.480297,51.4578337 121.711636,51.4578337 L86.883289,51.4578337 C87.9083675,61.8754222 95.2650257,67.7354451 103.832012,67.7354451 C109.792059,67.7354451 114.168176,65.4101457 117.707568,62.1545204 C118.26642,61.6893569 118.917896,61.3172264 119.756173,61.3172264 C121.525869,61.3172264 122.922481,62.7121995 122.922481,64.3862702 C122.922481,65.2240804 122.549395,66.0608577 121.804778,66.7115692 C117.241342,71.0835866 111.840663,73.9670819 103.646245,73.9670819 L103.646245,73.9670819 L103.646245,73.9670819 Z" id="Fill-16"></path>
            <path d="M58.7619361,8.11366692 C58.7619361,6.16049826 60.3458659,4.48591066 62.3013283,4.48591066 C64.349933,4.48591066 65.932828,6.16049826 65.932828,8.11366692 L65.932828,69.6883555 C65.932828,71.7350735 64.4430747,73.3155946 62.3944705,73.3155946 C60.3458659,73.3155946 58.7619361,71.7350735 58.7619361,69.6883555 L58.7619361,8.11366692 L58.7619361,8.11366692 Z" id="Fill-14"></path>
            <path d="M134.748502,49.0395537 L134.748502,48.8534882 C134.748502,35.2733066 145.364609,23.7403599 159.425933,23.7403599 C167.434067,23.7403599 172.835263,26.8094035 177.119273,30.7162576 C177.678124,31.180904 178.236976,32.1112304 178.236976,33.2271053 C178.236976,35.1807908 176.653046,36.6687962 174.790725,36.6687962 C173.859824,36.6687962 173.022064,36.2966657 172.463212,35.8315025 C169.017997,32.6689094 165.106554,30.0650291 159.332791,30.0650291 C149.554443,30.0650291 142.10516,38.3433838 142.10516,48.667423 L142.10516,48.8534882 C142.10516,59.2710769 149.741761,67.5494317 159.7985,67.5494317 C165.29232,67.5494317 169.669473,65.0375503 173.20783,61.6894088 C173.674057,61.2242453 174.325533,60.7590824 175.256435,60.7590824 C177.026131,60.7590824 178.515884,62.3401203 178.515884,64.0147082 C178.515884,64.8520017 178.142799,65.6887785 177.584983,66.2469748 C173.022064,70.8045403 167.527209,73.9671332 159.425933,73.9671332 C145.364609,73.9671332 134.748502,62.5267027 134.748502,49.0395537" id="Fill-18"></path>
            <path d="M436.822559,46.1560068 C436.077424,37.4130057 431.048796,29.7858795 421.456732,29.7858795 C413.07603,29.7858795 406.743415,36.7617772 405.812514,46.1560068 L436.822559,46.1560068 L436.822559,46.1560068 Z M422.574435,73.9670819 C409.350871,73.9670819 398.548997,63.8285911 398.548997,48.946469 L398.548997,48.7604039 C398.548997,34.9016412 408.327345,23.7403083 421.643533,23.7403083 C435.890623,23.7403083 443.991899,35.3668044 443.991899,48.1091754 C443.991899,50.0628611 442.409521,51.4578337 440.639825,51.4578337 L405.812514,51.4578337 C406.836557,61.8754222 414.193215,67.7354451 422.760201,67.7354451 C428.720248,67.7354451 433.097401,65.4101457 436.635758,62.1545204 C437.19461,61.6893569 437.846603,61.3172264 438.684362,61.3172264 C440.454059,61.3172264 441.85067,62.7121995 441.85067,64.3862702 C441.85067,65.2240804 441.47862,66.0608577 440.733485,66.7115692 C436.170566,71.0835866 430.768853,73.9670819 422.574435,73.9670819 L422.574435,73.9670819 L422.574435,73.9670819 Z" id="Fill-26"></path>
            <path d="M228.523101,27.9254851 C228.523101,25.9723164 230.107032,24.2982457 232.062494,24.2982457 C234.111099,24.2982457 235.693476,25.8792838 235.693476,27.9254851 L235.693476,36.9475841 C239.232869,28.9488442 246.216442,24.1121804 252.269631,24.1121804 C254.41086,24.1121804 255.808506,25.6932185 255.808506,27.7399366 C255.808506,29.6931053 254.505037,31.0880781 252.642199,31.367176 C243.330078,32.4830509 235.693476,39.4589486 235.693476,53.3182284 L235.693476,69.6883555 C235.693476,71.6415239 234.20424,73.3155946 232.155636,73.3155946 C230.107032,73.3155946 228.523101,71.7350735 228.523101,69.6883555 L228.523101,27.9254851 L228.523101,27.9254851 Z" id="Fill-22"></path>
            <path d="M193.416985,60.1078537 L193.416985,31.0883882 L189.505542,31.0883882 C187.828988,31.0883882 186.339235,29.5998659 186.339235,27.9252783 C186.339235,26.158175 187.828988,24.7632022 189.505542,24.7632022 L193.416985,24.7632022 L193.416985,13.4152871 C193.416985,11.4621185 194.906738,9.78804775 196.955343,9.78804775 C198.910805,9.78804775 200.586324,11.4621185 200.586324,13.4152871 L200.586324,24.7632022 L213.06527,24.7632022 C214.834967,24.7632022 216.32472,26.2512076 216.32472,27.9252783 C216.32472,29.6928986 214.834967,31.0883882 213.06527,31.0883882 L200.586324,31.0883882 L200.586324,59.178044 C200.586324,65.0375503 203.845774,67.1773011 208.689153,67.1773011 C211.202432,67.1773011 212.506419,66.5260724 213.06527,66.5260724 C214.741825,66.5260724 216.138436,67.921045 216.138436,69.5951158 C216.138436,70.8975732 215.300676,71.9204152 214.089831,72.3860954 C212.041227,73.2228722 209.805821,73.6880356 207.012082,73.6880356 C199.282856,73.6880356 193.416985,69.8742139 193.416985,60.1078537" id="Fill-20"></path>
    </g>
</svg>
